<svg width="183" height="24" viewBox="0 0 183 24" fill="none" xmlns="http://www.w3.org/2000/svg">
<g clip-path="url(#clip0_1856_85)">
<path d="M17.6747 0.343216C17.8605 -0.0707039 18.4225 -0.094238 18.7311 0.189474C19.3621 0.696822 19.7198 1.46671 19.9898 2.21768C20.4737 3.69242 20.5614 5.40013 19.8075 6.80036C19.437 7.59036 18.8784 8.2751 18.2273 8.84394C14.7577 11.9116 10.6894 14.1977 6.52205 16.1419C6.3104 16.2626 6.06977 16.2945 5.83008 16.2756C5.99954 15.9172 6.33272 15.689 6.59789 15.411C8.81837 13.1357 10.8051 10.6391 12.6539 8.04792C14.4375 5.55624 16.2056 3.04197 17.6747 0.343216Z" fill="#80BA27"/>
<path d="M40.4062 2.5664C42.4549 1.60965 44.7724 1.37549 46.9987 1.62502C48.5285 1.78468 50.0396 2.22923 51.3695 3.01698C52.2449 3.52681 53.0244 4.18423 53.756 4.88435C52.7591 6.07644 51.7412 7.25209 50.7256 8.4275C49.3314 7.14908 47.6204 6.07289 45.691 5.98892C43.8188 5.834 41.8952 6.62281 40.6868 8.08336C38.2396 10.9394 38.5493 15.8095 41.4663 18.221C42.9973 19.5278 45.164 19.8282 47.0678 19.3432C48.5426 18.9825 49.7756 18.0269 50.8778 17.0135C51.8782 18.047 52.8937 19.0664 53.9035 20.0918C52.9639 21.1739 51.8384 22.107 50.5774 22.7822C48.9401 23.6527 47.0702 24.0075 45.2319 23.9885C42.8805 24.0524 40.5046 23.3406 38.5915 21.9497C36.3266 20.3271 34.7641 17.7691 34.2768 15.0112C33.8677 12.6755 34.0921 10.2014 35.0576 8.02778C36.0997 5.62704 38.0385 3.63668 40.4062 2.5664ZM158.241 1.72082C158.973 1.72437 159.703 1.72082 160.436 1.7233C160.437 8.9857 160.432 16.2494 160.438 23.5132C159.706 23.5167 158.973 23.5132 158.24 23.5156C158.236 22.7161 158.249 21.9167 158.233 21.1184C157.663 21.7298 157.093 22.3589 156.37 22.7895C154.63 23.9258 152.38 24.1554 150.43 23.486C148.655 22.9065 147.124 21.6151 146.238 19.9547C145.381 18.4245 145.113 16.6151 145.275 14.8789C145.451 12.5598 146.68 10.3293 148.579 9.00723C150.378 7.72869 152.761 7.33487 154.86 8.01382C156.191 8.42774 157.347 9.29579 158.239 10.3661C158.244 7.48377 158.239 4.6017 158.241 1.72082ZM151.632 10.0004C150.588 10.2168 149.614 10.7811 148.913 11.5946C147.619 13.1 147.34 15.2371 147.662 17.147C147.917 18.5413 148.66 19.8765 149.82 20.6973C150.922 21.5075 152.357 21.8373 153.698 21.589C155.142 21.3323 156.452 20.4489 157.277 19.2296C158.789 17.0537 158.649 13.8512 156.925 11.8348C155.655 10.3221 153.56 9.54745 151.632 10.0004ZM106.093 3.29726C108.065 2.26364 110.369 2.05314 112.545 2.36062C114.106 2.57349 115.6 3.19201 116.894 4.09554C117.642 4.61353 118.326 5.21903 118.989 5.84464C118.449 6.42058 117.908 6.99652 117.351 7.55472C116.735 6.9433 116.085 6.36382 115.378 5.86357C113.619 4.64664 111.387 4.18305 109.291 4.53429C107.372 4.85242 105.598 5.96054 104.445 7.54408C103.427 8.9041 102.878 10.5893 102.771 12.2829C102.602 14.4577 103.148 16.7201 104.444 18.4822C105.665 20.1722 107.579 21.3371 109.635 21.6042C111.143 21.7804 112.72 21.6162 114.108 20.9692C115.394 20.3354 116.526 19.4128 117.494 18.3532C118.04 18.8666 118.56 19.4094 119.106 19.9237C117.921 21.1384 116.596 22.2606 115.039 22.9501C113.259 23.7613 111.258 23.9968 109.329 23.7826C106.967 23.5201 104.717 22.3587 103.108 20.5931C100.343 17.5656 99.6161 12.9273 101.023 9.1003C101.919 6.62045 103.734 4.45978 106.093 3.29726ZM163.583 2.28493C164.433 2.27547 165.282 2.2789 166.133 2.28245C166.138 3.20253 166.136 4.12274 166.134 5.0427C165.282 5.04152 164.43 5.05216 163.578 5.03679C163.582 4.11919 163.575 3.20147 163.583 2.28493ZM170.477 3.34575C171.22 3.34327 171.964 3.3422 172.707 3.34693C172.707 4.90682 172.707 6.46552 172.708 8.02553C174.402 8.02789 176.095 8.02553 177.79 8.02671C177.79 8.73511 177.787 9.44232 177.792 10.1507C176.097 10.1519 174.403 10.1507 172.708 10.1507C172.707 13.2244 172.707 16.2979 172.708 19.3705C172.73 19.9889 172.874 20.6927 173.403 21.0733C174.113 21.5854 175.041 21.6612 175.88 21.5263C176.533 21.4342 177.127 21.1243 177.731 20.8747C177.733 21.621 177.736 22.3671 177.729 23.1134C176.864 23.5273 175.92 23.8064 174.954 23.7545C173.587 23.8064 172.106 23.3122 171.294 22.1413C170.684 21.317 170.482 20.2715 170.477 19.2616C170.474 16.2269 170.472 13.1923 170.477 10.1565C169.788 10.1447 169.097 10.153 168.407 10.1518V8.02553C169.096 8.02553 169.786 8.03014 170.476 8.02198C170.474 6.46316 170.472 4.90445 170.477 3.34575ZM78.4829 7.34895C79.3559 6.79548 80.4077 6.64292 81.4198 6.65829C81.4513 8.31752 81.4291 9.97687 81.4314 11.636C80.0583 11.5982 78.58 11.9506 77.6134 13.0019C76.5289 14.1622 76.2426 15.8226 76.1993 17.3623C76.1922 19.452 76.1968 21.543 76.1968 23.6337C74.639 23.6326 73.0812 23.6326 71.5246 23.6337C71.5269 18.0825 71.5233 12.5324 71.5269 6.98233C73.0826 6.9847 74.6391 6.9847 76.1946 6.98233C76.204 8.04906 76.1806 9.11698 76.2086 10.1837C76.7368 9.08268 77.4146 7.98638 78.4829 7.34895ZM85.136 8.20399C86.5232 7.16564 88.2622 6.637 89.9837 6.68549C91.8289 6.66882 93.721 7.26013 95.1036 8.52566C96.6136 9.87622 97.455 11.8488 97.746 13.838C97.8896 14.8728 97.9517 15.9289 97.8031 16.9673C94.005 16.9531 90.2068 16.9673 86.4086 16.9602C86.6237 17.9902 87.1776 18.9835 88.0704 19.556C89.0499 20.1982 90.2829 20.2668 91.4083 20.1C92.5477 19.9227 93.5399 19.2545 94.3685 18.4727C95.2789 19.265 96.1718 20.0799 97.0728 20.8841C95.8949 22.392 94.1839 23.4623 92.313 23.8123C90.1626 24.2181 87.844 23.9885 85.9098 22.9088C84.2737 22.0088 82.9741 20.5021 82.3242 18.7353C81.6849 17.0228 81.5833 15.1235 81.9457 13.3354C82.3557 11.3143 83.4789 9.42446 85.136 8.20399ZM87.6452 11.345C86.9077 12.031 86.5337 13.0137 86.3375 13.9883C88.662 13.9907 90.9853 13.9859 93.3097 13.9907C93.1543 12.7135 92.5185 11.3818 91.3196 10.813C90.1368 10.244 88.6128 10.4344 87.6452 11.345ZM55.9624 8.1484C58.3933 6.97299 61.156 6.62175 63.8218 6.88181C65.3796 7.05447 66.9725 7.62095 68.0512 8.81777C68.8352 9.67281 69.2982 10.7858 69.5085 11.9222C69.7446 13.0894 69.6803 14.2874 69.6885 15.4725C69.6873 18.1926 69.6885 20.9126 69.6873 23.6327C68.1714 23.6291 66.6558 23.6421 65.14 23.6255C65.147 23.0673 65.1517 22.508 65.1376 21.9497C64.7706 22.2193 64.4703 22.5719 64.0869 22.819C62.542 23.9 60.5436 24.1436 58.7275 23.7959C57.2106 23.505 55.7403 22.5884 55.0602 21.1468C54.5389 20.1297 54.5109 18.946 54.6231 17.8295C54.7879 16.5523 55.4961 15.3579 56.5596 14.6436C57.8965 13.7437 59.5431 13.4681 61.122 13.4657C62.5 13.4421 63.8802 13.6655 65.1786 14.1327C65.2346 13.1819 64.9659 12.1282 64.1677 11.5475C63.1964 10.8452 61.925 10.7977 60.7774 10.9043C59.5234 10.9763 58.3091 11.3358 57.1369 11.7746C56.7419 10.5669 56.3539 9.35705 55.9624 8.1484ZM61.3034 16.3984C60.6665 16.5084 60.0119 16.7437 59.5761 17.2475C58.8829 18.0446 58.9205 19.4709 59.8016 20.1154C60.5765 20.6973 61.6096 20.7186 62.5259 20.5696C63.5659 20.3969 64.6214 19.8033 65.0421 18.7802C65.3074 18.1961 65.2291 17.542 65.2313 16.9201C63.9982 16.3996 62.6263 16.195 61.3034 16.3984ZM133.048 8.79885C135.504 7.14199 139.064 7.32884 141.266 9.34995C142.885 10.7916 143.704 12.9712 143.822 15.1166C143.852 15.6628 143.873 16.2198 143.741 16.7556C139.776 16.7508 135.812 16.7532 131.847 16.7532C132.029 18.4017 132.942 19.9746 134.327 20.8757C135.414 21.5829 136.761 21.7958 138.028 21.609C139.62 21.4245 140.987 20.3956 142.013 19.2047C142.568 19.6564 143.088 20.152 143.626 20.6263C142.868 21.4648 142.028 22.2405 141.057 22.8189C139.884 23.5757 138.467 23.8632 137.091 23.8502C135.378 23.8916 133.66 23.2825 132.334 22.1862C130.753 20.902 129.776 18.9365 129.562 16.9069C129.434 15.5848 129.511 14.2247 129.936 12.9593C130.473 11.2729 131.567 9.75796 133.048 8.79885ZM134.601 10.3658C133.041 11.2139 132.101 12.9357 131.85 14.6695C135.062 14.6707 138.274 14.6671 141.487 14.6719C141.356 13.6856 141.057 12.7064 140.521 11.8667C139.916 10.9206 138.966 10.1897 137.874 9.93784C136.779 9.70474 135.588 9.80408 134.601 10.3658ZM127.925 7.87876C128.472 7.78179 129.029 7.81372 129.582 7.81135C129.581 8.60371 129.588 9.39726 129.578 10.1896C128.158 10.1138 126.678 10.4544 125.556 11.3709C123.943 12.6483 123.195 14.7628 123.159 16.7862C123.152 19.0285 123.158 21.272 123.156 23.5143C122.424 23.5155 121.691 23.5143 120.959 23.5155C120.961 18.3521 120.961 13.1888 120.959 8.02553C121.692 8.02789 122.425 8.02553 123.158 8.02671C123.16 8.98346 123.145 9.9402 123.165 10.897C123.418 10.7042 123.575 10.4157 123.793 10.185C124.851 8.96205 126.331 8.10819 127.925 7.87876ZM163.753 8.02659C164.485 8.02541 165.217 8.02659 165.951 8.02541C165.95 13.1886 165.95 18.352 165.951 23.5154C165.218 23.5142 164.485 23.5165 163.754 23.513C163.754 18.3509 163.756 13.1888 163.753 8.02659ZM25.4461 11.6667C25.4681 11.6111 25.5138 11.5013 25.5372 11.4457C25.5395 11.4965 25.5431 11.5994 25.5453 11.6502L25.4461 11.6667ZM27.7168 15.2702C28.1948 15.0786 28.868 15.0278 29.1823 15.5256C29.5177 16.1039 29.4033 16.8146 29.2583 17.4344C28.8586 18.9683 27.9493 20.3531 26.7409 21.3584C25.6786 22.2076 24.344 22.6084 23.0385 22.8876C21.2656 23.2436 19.453 23.3144 17.6509 23.3736C14.5808 23.4209 11.5037 23.2223 8.4733 22.7137C5.75614 22.2372 3.0378 21.5606 0.554375 20.3176C0.373231 20.2479 0.236496 20.1095 0.119629 19.9593C0.418809 19.7121 0.816158 19.8505 1.16431 19.8493C4.7533 19.983 8.35632 19.8363 11.9185 19.3692C14.3703 19.0511 16.7826 18.4881 19.1795 17.8909C22.0627 17.1482 24.9295 16.3251 27.7168 15.2702ZM19.3947 16.1323C19.4496 16.1087 19.5594 16.0626 19.6144 16.0401L19.597 16.143L19.4848 16.1902L19.3947 16.1323ZM18.6923 16.3641L18.912 16.2695L18.8956 16.37C18.8454 16.3689 18.7437 16.3653 18.6923 16.3641ZM17.8766 16.6101C17.9303 16.5853 18.038 16.5368 18.0917 16.5131L18.0777 16.6137C18.0273 16.6137 17.9268 16.6113 17.8766 16.6101ZM17.0515 16.8348C17.1064 16.8135 17.2174 16.7698 17.2724 16.7486L17.2525 16.8502L17.1403 16.8939L17.0515 16.8348ZM16.5899 16.9554C16.6436 16.9353 16.7535 16.8951 16.8072 16.8749L16.7874 16.9744L16.5899 16.9554ZM16.1247 17.0891C16.1785 17.0678 16.2848 17.024 16.3373 17.0027L16.3209 17.1034L16.1247 17.0891ZM5.1801 17.8826L5.28762 17.8282L5.3824 17.8801C5.32864 17.9063 5.22229 17.9595 5.16853 17.9855L5.1801 17.8826Z" fill="#0F5D69"/>
<path d="M180.096 3.17561C179.959 2.92726 180.341 2.92963 180.203 3.17561H180.096ZM23.8695 6.87724C24.1792 6.63953 24.6011 6.51429 24.9763 6.6562C25.5046 6.93519 25.6705 7.5809 25.7826 8.12728C25.9299 9.22712 25.9042 10.3944 25.5372 11.4458C25.5139 11.5014 25.4682 11.6113 25.4461 11.6669C25.4963 11.8277 25.3865 11.9792 25.3409 12.127C25.1457 12.58 24.926 13.0306 24.5977 13.4007C23.304 14.7986 21.4832 15.4751 19.7255 16.0546L19.6145 16.0404C19.5596 16.0628 19.4497 16.109 19.3948 16.1326C19.2569 16.2237 19.0816 16.3218 18.9121 16.2698L18.6924 16.3644C18.5113 16.4578 18.3009 16.5666 18.0917 16.5134C18.038 16.5371 17.9303 16.5856 17.8766 16.6104C17.6908 16.6908 17.4804 16.8101 17.2724 16.7488C17.2174 16.77 17.1064 16.8138 17.0515 16.835L16.9416 16.9166L16.8074 16.8751C16.7536 16.8953 16.6437 16.9355 16.59 16.9556L16.4684 17.0418L16.3376 17.0028C16.2851 17.0242 16.1787 17.0679 16.125 17.0891C15.9087 17.1766 15.6796 17.2192 15.4553 17.2748C11.878 18.112 8.22826 18.6112 4.56681 18.8583C4.14024 18.8854 3.71251 18.9127 3.28711 18.8642L3.29178 18.5911C3.92053 18.4089 4.52707 18.0849 5.16879 17.9855C5.22255 17.9595 5.3289 17.9063 5.38266 17.8802C5.63965 17.7135 5.94362 17.6413 6.22281 17.522C8.72611 16.5142 11.1745 15.3625 13.5258 14.0297C16.0606 12.613 18.3758 10.8413 20.7319 9.14777C20.7377 9.14434 20.7482 9.13594 20.754 9.13121C21.7903 8.37685 22.8289 7.62552 23.8695 6.87724V6.87724Z" fill="#019E93"/>
</g>
<defs>
<clipPath id="clip0_1856_85">
<rect width="183" height="24" fill="white"/>
</clipPath>
</defs>
</svg>
