<svg width="22" height="22" viewBox="0 0 22 22" fill="none" xmlns="http://www.w3.org/2000/svg">
<path d="M11 0.875C8.99747 0.875 7.0399 1.46882 5.37486 2.58137C3.70981 3.69392 2.41206 5.27523 1.64572 7.12533C0.879387 8.97543 0.678878 11.0112 1.06955 12.9753C1.46023 14.9393 2.42454 16.7435 3.84055 18.1595C5.25656 19.5755 7.06066 20.5398 9.02471 20.9305C10.9888 21.3211 13.0246 21.1206 14.8747 20.3543C16.7248 19.5879 18.3061 18.2902 19.4186 16.6251C20.5312 14.9601 21.125 13.0025 21.125 11C21.122 8.3156 20.0543 5.74199 18.1562 3.84383C16.258 1.94567 13.6844 0.877978 11 0.875ZM11 18.875C9.44248 18.875 7.91993 18.4131 6.62489 17.5478C5.32985 16.6825 4.32049 15.4526 3.72445 14.0136C3.12841 12.5747 2.97246 10.9913 3.27632 9.46366C3.58018 7.93606 4.3302 6.53287 5.43154 5.43153C6.53288 4.3302 7.93607 3.58017 9.46367 3.27632C10.9913 2.97246 12.5747 3.12841 14.0136 3.72445C15.4526 4.32049 16.6825 5.32985 17.5478 6.62488C18.4131 7.91992 18.875 9.44247 18.875 11C18.8728 13.0879 18.0424 15.0896 16.566 16.566C15.0896 18.0424 13.0879 18.8728 11 18.875ZM14.0459 10.2041C14.1508 10.3086 14.234 10.4328 14.2908 10.5695C14.3476 10.7063 14.3768 10.8529 14.3768 11.0009C14.3768 11.149 14.3476 11.2956 14.2908 11.4324C14.234 11.5691 14.1508 11.6933 14.0459 11.7978L10.2959 15.5478C10.0846 15.7592 9.79795 15.8779 9.49907 15.8779C9.20018 15.8779 8.91354 15.7592 8.70219 15.5478C8.49085 15.3365 8.37212 15.0498 8.37212 14.7509C8.37212 14.4521 8.49085 14.1654 8.70219 13.9541L11.6563 11L8.70407 8.04594C8.49272 7.83459 8.37399 7.54795 8.37399 7.24906C8.37399 6.95018 8.49272 6.66353 8.70407 6.45219C8.91541 6.24084 9.20206 6.12211 9.50094 6.12211C9.79983 6.12211 10.0865 6.24084 10.2978 6.45219L14.0459 10.2041Z" fill="#114646" fill-opacity="0.8"/>
</svg>
